<?xml version="1.0" encoding="utf-8"?>
<!-- Generator: Adobe Illustrator 27.0.0, SVG Export Plug-In . SVG Version: 6.00 Build 0)  -->
<svg version="1.1" id="Layer_1" xmlns="http://www.w3.org/2000/svg" xmlns:xlink="http://www.w3.org/1999/xlink" x="0px" y="0px"
	 viewBox="0 0 595.28 841.89" style="enable-background:new 0 0 595.28 841.89;" xml:space="preserve">
<style type="text/css">
	.st0{fill:#046937;}
	.st1{fill:#FBB03C;}
</style>
<g>
	<g>
		<circle class="st0" cx="331.55" cy="241.39" r="28.5"/>
		<circle class="st0" cx="263.46" cy="241.39" r="28.5"/>
	</g>
	<g>
		<polygon class="st1" points="200.89,377.76 250.37,377.76 290.76,343.28 235.34,343.28 		"/>
		<polygon class="st1" points="394.17,377.76 346.37,377.76 305.98,343.28 359.7,343.28 		"/>
		<polygon class="st1" points="262.11,377.76 334.18,377.76 298.15,343.28 		"/>
		<polygon class="st1" points="203.21,388.34 248.71,388.34 287.96,473.1 		"/>
		<polygon class="st1" points="391.85,388.34 347.25,388.34 309.86,470.36 		"/>
		<polygon class="st1" points="259.1,388.34 336.59,388.34 298.75,480.91 		"/>
	</g>
	<path class="st0" d="M371.11,505.86l-24.89,24.89l24.86,24.86l11.51,11.51l-12.06,12.06l-0.02,0.02L359,567.69l-24.92-24.92
		l-11.71-11.71l0.02-0.02l124.25-124.25l24.86-24.86l0.05-0.05l-24.92-24.92l-12.15-12.16l-53.33-53.33H213.86l-65.52,65.52
		l-24.89,24.89l149.13,149.13l0.05,0.05l-48.14,48.14l-0.05-0.05l-12.03-12.03l11.77-11.77l24.6-24.6l-0.13-0.13l-24.91-24.91
		l-87.19-87.19l-13.1-13.1v50.1l75.24,75.23l-11.33,11.32l-63.91-63.91v49.74l26.45,26.45l-0.18,0.18l37.51,37.51l12.16,12.15
		l24.92,24.92l24.82-24.82l36.91-36.91l11.27-11.27l0.01,0.01l0.18-0.18l0.18,0.18l0.01-0.01l11.53,11.53l24.92,24.92l11.71,11.71
		l24.84,24.84l24.87-24.91l12.01-12.04l24.89-24.95l39.09-39.16v-49.89l-64.07,64.07l-0.02,0.02l-11.51-11.5l0.02-0.02l75.58-75.58
		v-49.72l-13.14,13.13L371.11,505.86z M285.3,493.98l-24.92-24.91l-87.19-87.19l55.25-55.25h138.13l18.12,18.13l24.92,24.92
		l12.15,12.15l0.05,0.05l-0.04,0.04l-87.31,87.3l-24.91,24.92L297.68,506l-0.16,0.16l-0.02,0.02L285.3,493.98z"/>
	<g>
		<circle class="st0" cx="331.55" cy="241.39" r="28.5"/>
		<circle class="st0" cx="263.46" cy="241.39" r="28.5"/>
	</g>
</g>
</svg>
