<?xml version="1.0" encoding="utf-8"?>
<!-- Generator: Adobe Illustrator 27.0.0, SVG Export Plug-In . SVG Version: 6.00 Build 0)  -->
<svg version="1.1" id="Layer_1" xmlns="http://www.w3.org/2000/svg" xmlns:xlink="http://www.w3.org/1999/xlink" x="0px" y="0px"
	 viewBox="0 0 3000 3000" style="enable-background:new 0 0 3000 3000;" xml:space="preserve">
<style type="text/css">
	.st0{fill:#006837;}
	.st1{fill:#FBB03B;}
</style>
<g>
	<g>
		<path class="st0" d="M1299.83,1406.4c3.2,0,6.15-1.21,8.83-3.64c2.42-2.51,3.64-5.37,3.64-8.57c0-1.56-0.3-3.05-0.91-4.48
			c-0.61-1.43-1.52-2.79-2.73-4.09c-2.86-2.6-5.8-3.9-8.83-3.9c-3.12,0-5.97,1.17-8.57,3.51c-2.6,2.34-3.9,5.32-3.9,8.96
			c0,3.12,1.21,5.97,3.64,8.57C1293.51,1405.19,1296.46,1406.4,1299.83,1406.4z"/>
		<path class="st0" d="M1272.44,1406.4c3.2,0,6.14-1.21,8.83-3.64c2.42-2.51,3.64-5.37,3.64-8.57c0-1.56-0.3-3.05-0.91-4.48
			c-0.61-1.43-1.52-2.79-2.73-4.09c-2.86-2.6-5.8-3.9-8.83-3.9c-3.12,0-5.97,1.17-8.57,3.51s-3.9,5.32-3.9,8.96
			c0,3.12,1.21,5.97,3.64,8.57C1266.12,1405.19,1269.06,1406.4,1272.44,1406.4z"/>
		<path class="st0" d="M1324.11,1479.24l1.3-4.15c0.34-0.95,0.65-2.51,0.91-4.67c0.26-1.04,0.43-2.06,0.52-3.05
			c0.09-0.99,0.13-1.97,0.13-2.92c0-7.96-2.04-14.89-6.1-20.77c-4.59-6.58-10.34-11.9-17.27-15.97l-9.87-6.88l-4.8-5.06l-2.6-5.32
			c-0.95,2.16-1.95,3.94-2.99,5.32l-4.28,4.8l-2.73,2.08l-2.6,1.82l-10,6.49c-4.85,3.2-8.57,6.93-11.17,11.17
			c-2.94,4.07-4.8,7.79-5.58,11.17c-0.52,1.13-0.84,1.99-0.97,2.6c-0.13,0.61-0.19,1.43-0.19,2.47c-0.17,1.13-0.26,2.16-0.26,3.12
			c0,0.95,0,1.95,0,2.99l0.26,5.58l1.17,5.84l1.69,3.89l1.95,3.77h25.06c-2.86-1.82-4.8-3.25-5.84-4.29
			c-1.39-1.47-2.73-3.33-4.03-5.58c-0.87-1.38-1.43-2.73-1.69-4.03l-0.39-5.19c0-7.88,3.42-14.2,10.26-18.96l5.32-3.38l7.01-5.32
			l6.62,5.06l5.58,3.64c6.75,4.85,10.13,11.17,10.13,18.96c0,6.23-2.55,11.56-7.66,15.97c-5.11,4.41-10.73,6.62-16.88,6.62h-41.03
			v-0.13h-29.6h-8.57h-21.03h-8.57h-29.6v0.13h-8.57v-4.28c0-4.33-0.26-8.33-0.78-12.01c-0.52-3.68-1.26-7.03-2.21-10.06
			c-1.9-6.23-4.76-11.3-8.57-15.19c-7.71-7.96-18.65-11.95-32.85-11.95h-10.13c-5.71,0-11.08-0.73-16.1-2.21
			c-5.02-1.47-9.7-3.64-14.02-6.49c-8.92-6.15-16.27-13.16-22.07-21.03l-11.69-16.49v10.65l0.39,8.7l0.91,6.88
			c1.3,4.67,3.46,8.87,6.49,12.59l5.06,5.32l4.16,4.15c1.12,0.78,2.14,1.47,3.05,2.08c0.91,0.61,2.06,1.34,3.44,2.21l9.48,5.58
			c7.96,4.24,17.44,6.36,28.44,6.36h6.1c6.23,0,11.53,0.76,15.91,2.27c4.37,1.52,7.6,3.53,9.67,6.04
			c4.76,5.54,7.14,13.07,7.14,22.59v4.28h-62.71c-17.75,0-30.6-2.94-38.56-8.83c-8.22-6.15-14.15-14.63-17.79-25.45
			c-1.39,2.6-2.27,4.78-2.66,6.56c-0.39,1.78-0.63,3.2-0.71,4.28c-0.09,1.08-0.13,2.14-0.13,3.18l1.04,5.84l1.95,7.14
			c2.34,6.23,7.9,12.01,16.68,17.33c8.78,5.32,22.18,7.98,40.19,7.98h89.46h8.44h21.16h8.57h21.03h8.57h22.07h7.53h37.39
			c12.21,0,21.86-2.51,28.95-7.53C1316.54,1492.53,1321.43,1486.43,1324.11,1479.24z"/>
		<path class="st0" d="M1513.55,1487.04c-12.55,0-22.77-2.94-30.64-8.83c-7.88-5.89-13.24-11.73-16.1-17.53l-3.64-7.14l-1.82-4.29
			l-0.91-3.38l-0.78-4.29h64.01v-67.65l-5.84,7.27l-9.35,15.58h-1.04c-3.81,0-7.45,1.6-10.91,4.8c-3.03,3.29-4.54,7.19-4.54,11.69
			l3.25-1.3c0.95-0.52,1.64-0.78,2.08-0.78c0.43-0.17,1.25-0.26,2.47-0.26c1.73,0.43,3.07,1.04,4.03,1.82
			c1.04,1.56,1.56,3.16,1.56,4.8v5.58h-69.98l2.21,11.43c1.99,9.61,4.89,19,8.7,28.18c4.5,9.87,9.65,17.96,15.45,24.28h-33.63v-0.13
			h-29.6h-8.57h-21.03h-8.57h-29.6v0.13h-5.06l-2.73,3.9l-3.64,4.28c-2.34,2.6-4.67,4.54-7.01,5.84l-3.38,2.21l-1.95,0.78
			c-0.69,0.43-1.82,0.78-3.38,1.04h27.14h9.48h20.13h8.57h21.03h8.57h22.07h7.53h103.35c6.84,0,14.2-3.03,22.07-9.09l8.7-8.96
			H1513.55z"/>
	</g>
	<g>
		<path class="st1" d="M1027.59,1602.95l-31.19,91.8h14.83l9.25-28h29.57l9.51,28h15.22l-31.33-91.8H1027.59z M1038.63,1631.2
			l8.09,23.79h-22.93l8.1-23.95c1.11-3.49,2.18-7.21,3.3-11.46C1036.16,1623.27,1037.23,1627.11,1038.63,1631.2z"/>
		<path class="st1" d="M1212.29,1690.6c14.51-6.67,23.06-22.34,23.06-42.68c0-13.36-3.88-24.87-11.22-33.29
			c-7.49-8.6-17.89-13.14-30.06-13.14c-12.16,0-23.1,4.69-30.78,13.2c-7.9,8.75-12.08,20.88-12.08,35.07
			c0,31.02,20.37,45.67,40.62,46.43c1.47,0,3.16,0.6,4.96,1.24c10.47,3.62,22.28,7.2,34.18,10.33l1.25,0.33l4.25-12.41l-1.6-0.28
			C1228.42,1694.29,1220.19,1692.53,1212.29,1690.6z M1220.42,1648.45c0,17.72-8.43,35.59-27.27,35.59
			c-6.55,0-12.45-2.45-17.05-7.08c-6.32-6.37-9.9-16.37-9.82-27.46c-0.08-11.87,3.53-22.36,9.91-28.78
			c4.66-4.69,10.54-7.07,17.5-7.07C1212.05,1613.65,1220.42,1631.69,1220.42,1648.45z"/>
		<path class="st1" d="M1377.25,1690.6c14.51-6.67,23.06-22.34,23.06-42.68c0-13.36-3.88-24.87-11.22-33.29
			c-7.49-8.6-17.89-13.14-30.06-13.14c-12.16,0-23.1,4.69-30.78,13.2c-7.9,8.75-12.08,20.88-12.08,35.07
			c0,31.02,20.37,45.67,40.62,46.43c1.47,0,3.16,0.6,4.96,1.24c10.47,3.62,22.28,7.2,34.18,10.33l1.25,0.33l4.25-12.41l-1.6-0.28
			C1393.39,1694.29,1385.16,1692.53,1377.25,1690.6z M1385.38,1648.45c0,17.72-8.43,35.59-27.27,35.59
			c-6.55,0-12.45-2.45-17.05-7.08c-6.32-6.37-9.9-16.37-9.82-27.46c-0.08-11.87,3.53-22.36,9.91-28.78
			c4.66-4.69,10.54-7.07,17.5-7.07C1377.01,1613.65,1385.38,1631.69,1385.38,1648.45z"/>
		<path class="st1" d="M1549.25,1613.76c-8.28-7.72-20.38-11.47-37.01-11.47c-8.15,0-16.44,0.63-24.64,1.86l-1.18,0.18v90.01
			l1.23,0.14c6.22,0.71,13.3,1.07,21.02,1.07c17.74,0,31.7-4.57,40.33-13.21c8.65-8.52,13.23-20.83,13.23-35.6
			C1562.24,1632.75,1557.86,1621.65,1549.25,1613.76z M1547.44,1647.13c0,23.46-12.97,36.38-36.52,36.38
			c-2.99,0-7.14-0.05-10.23-0.46v-67.94c2.54-0.47,6.48-0.94,12.08-0.94c11.53,0,20.38,3.03,26.32,9
			C1544.69,1628.82,1547.5,1636.87,1547.44,1647.13z"/>
	</g>
	<g>
		<g>
			<circle class="st0" cx="1863.6" cy="1320.39" r="28.5"/>
			<circle class="st0" cx="1795.51" cy="1320.39" r="28.5"/>
		</g>
		<g>
			<polygon class="st1" points="1732.94,1456.76 1782.43,1456.76 1822.82,1422.28 1767.39,1422.28 			"/>
			<polygon class="st1" points="1926.23,1456.76 1878.43,1456.76 1838.04,1422.28 1891.75,1422.28 			"/>
			<polygon class="st1" points="1794.17,1456.76 1866.23,1456.76 1830.2,1422.28 			"/>
			<polygon class="st1" points="1735.26,1467.34 1780.77,1467.34 1820.02,1552.1 			"/>
			<polygon class="st1" points="1923.91,1467.34 1879.31,1467.34 1841.92,1549.36 			"/>
			<polygon class="st1" points="1791.15,1467.34 1868.65,1467.34 1830.8,1559.91 			"/>
		</g>
		<path class="st0" d="M1903.16,1584.86l-24.89,24.89l24.86,24.86l11.51,11.51l-12.06,12.06l-0.02,0.02l-11.51-11.51l-24.92-24.92
			l-11.71-11.71l0.02-0.02l124.25-124.25l24.86-24.86l0.05-0.05l-24.92-24.92l-12.15-12.16l-53.33-53.33h-167.29l-65.52,65.52
			l-24.89,24.89l149.13,149.13l0.05,0.05l-48.14,48.14l-0.05-0.05l-12.03-12.03l11.77-11.77l24.6-24.6l-0.13-0.13l-24.91-24.91
			l-87.19-87.19l-13.1-13.1v50.1l75.24,75.23l-11.33,11.32l-63.91-63.91v49.74l26.45,26.45l-0.18,0.18l37.51,37.51l12.16,12.15
			l24.92,24.92l24.82-24.82l36.91-36.91l11.27-11.27l0.01,0.01l0.18-0.18l0.18,0.18l0.01-0.01l11.53,11.53l24.92,24.92l11.71,11.71
			l24.84,24.84l24.87-24.91l12.01-12.04l24.89-24.95l39.09-39.16v-49.89l-64.07,64.07l-0.02,0.02l-11.51-11.5l0.02-0.02l75.58-75.58
			v-49.72l-13.14,13.13L1903.16,1584.86z M1817.35,1572.98l-24.92-24.91l-87.19-87.19l55.25-55.25h138.13l18.12,18.13l24.92,24.92
			l12.15,12.15l0.05,0.05l-0.04,0.04l-87.31,87.3l-24.91,24.92l-11.87,11.86l-0.16,0.16l-0.02,0.02L1817.35,1572.98z"/>
		<g>
			<circle class="st0" cx="1863.6" cy="1320.39" r="28.5"/>
			<circle class="st0" cx="1795.51" cy="1320.39" r="28.5"/>
		</g>
	</g>
</g>
</svg>
